<svg width="18" height="18" viewBox="0 0 18 18" fill="none" xmlns="http://www.w3.org/2000/svg">
<path fill-rule="evenodd" clip-rule="evenodd" d="M11.8493 18V11.4662H13.9778L14.2956 8.93063H11.8493V7.28858C11.8493 6.54 12.0406 6.03289 13.063 6.03289H14.4V3.69659C14.1742 3.66641 13.3844 3.6 12.4844 3.6C10.6048 3.6 9.33465 4.81343 9.33465 7.01692V8.93063H7.2V11.4662H9.33413L9.33006 18H1.5C0.679688 18 0 17.3203 0 16.5V1.5C0 0.679688 0.679688 0 1.5 0H16.5C17.3203 0 18 0.679688 18 1.5V16.5C18 17.3203 17.3203 18 16.5 18H11.8493Z" fill="white"/>
</svg>
