<svg width="34" height="36" viewBox="0 0 34 36" fill="none" xmlns="http://www.w3.org/2000/svg">
<path d="M32.9107 8.57302H23.8145C24.2078 8.3011 24.5773 7.99512 24.9182 7.65886C27.0262 5.51962 27.0953 2.27612 25.7486 0.91362C24.402 -0.448878 21.1975 -0.380171 19.0809 1.75499C18.2154 2.70816 17.5122 3.7999 17 4.98598C16.4878 3.79903 15.784 2.7067 14.9176 1.75325C12.8034 -0.379589 9.59796 -0.449461 8.25106 0.913038C6.90388 2.27554 6.97351 5.51904 9.08176 7.65886C9.42302 7.99512 9.79247 8.3011 10.1855 8.57302H1.08929C0.763855 8.57302 0.5 8.83998 0.5 9.16926V15.1316C0.5 15.4609 0.763855 15.7279 1.08929 15.7279H2.26786V33.0188C2.26987 34.6643 3.588 35.998 5.21429 36H28.7857C30.4123 35.998 31.7304 34.6643 31.7321 33.0188V15.7279H32.9107C33.2361 15.7279 33.5 15.4609 33.5 15.1316V9.16926C33.5 8.83998 33.2361 8.57302 32.9107 8.57302ZM19.9148 2.59753C21.6084 0.889165 24.0786 0.908962 24.9159 1.75616C25.7533 2.60335 25.7734 5.10156 24.085 6.81574C23.3118 7.53892 22.429 8.13195 21.4703 8.57302H17.949C17.949 8.5605 17.949 8.54681 17.949 8.5343C17.949 8.39834 17.9389 8.26063 17.9259 8.12205C17.921 8.07635 17.9159 8.03093 17.9107 7.98435C17.8972 7.86993 17.8805 7.75581 17.8603 7.64227C17.854 7.60238 17.8474 7.56221 17.8405 7.5229C17.8123 7.37443 17.7815 7.22828 17.7461 7.08708C17.7415 7.0667 17.736 7.04894 17.7314 7.0274C17.7001 6.90396 17.6678 6.78896 17.6347 6.66989C17.6301 6.65358 17.6258 6.63582 17.6212 6.61952C18.104 5.13358 18.885 3.7641 19.9148 2.59753ZM19.3571 14.5354H14.6429V9.7655H19.3571V14.5354ZM9.91562 6.81633C8.22689 5.10214 8.24675 2.60393 9.08435 1.75616C9.92167 0.90838 12.3907 0.888583 14.0838 2.59578C15.1559 3.81097 15.9595 5.24392 16.4409 6.79857C16.5074 7.00789 16.5586 7.20877 16.607 7.40383C16.6205 7.45973 16.6317 7.51388 16.6435 7.5689C16.6754 7.71447 16.701 7.85334 16.7203 7.98639C16.7267 8.03151 16.735 8.07809 16.7402 8.12205C16.7589 8.27082 16.7689 8.42075 16.7704 8.57069H12.5297C11.5716 8.1305 10.6891 7.53833 9.91562 6.81633ZM1.67857 9.7655H13.4643V14.5354H1.67857V9.7655ZM3.44643 33.0188V15.7279H14.6429V34.8075H5.21429C4.23799 34.8075 3.44643 34.0066 3.44643 33.0188ZM15.8214 34.8075V15.7279H18.1786V34.8075H15.8214ZM30.5536 33.0188C30.5536 34.0066 29.7623 34.8075 28.7857 34.8075H19.3571V15.7279H30.5536V33.0188ZM32.3214 14.5354H20.5357V9.7655H32.3214V14.5354Z" fill="white"/>
</svg>
