<svg width="18" height="18" viewBox="0 0 18 18" fill="none" xmlns="http://www.w3.org/2000/svg">
<path fill-rule="evenodd" clip-rule="evenodd" d="M4.90909 1.63636C3.10161 1.63636 1.63636 3.10161 1.63636 4.90909V13.0909C1.63636 14.8984 3.10161 16.3636 4.90909 16.3636H13.0909C14.8984 16.3636 16.3636 14.8984 16.3636 13.0909V4.90909C16.3636 3.10161 14.8984 1.63636 13.0909 1.63636H4.90909ZM4.90909 0H13.0909C15.8021 0 18 2.19787 18 4.90909V13.0909C18 15.8021 15.8021 18 13.0909 18H4.90909C2.19787 18 0 15.8021 0 13.0909V4.90909C0 2.19787 2.19787 0 4.90909 0ZM11.4634 8.60456C11.3048 7.53501 10.465 6.69521 9.39544 6.5366C8.34798 6.38128 7.31899 6.9152 6.84291 7.86106C6.36684 8.80692 6.55101 9.95146 7.29977 10.7002C8.04854 11.449 9.19308 11.6332 10.1389 11.1571C11.0848 10.681 11.6187 9.65202 11.4634 8.60456ZM13.0821 8.36453C13.3409 10.1103 12.4511 11.8253 10.8746 12.6187C9.2982 13.4122 7.39063 13.1053 6.14269 11.8573C4.89475 10.6094 4.58779 8.7018 5.38126 7.12537C6.17472 5.54894 7.8897 4.65907 9.63547 4.91794C11.4181 5.18228 12.8177 6.58194 13.0821 8.36453ZM13.5 5.72727C12.8222 5.72727 12.2727 5.1778 12.2727 4.5C12.2727 3.8222 12.8222 3.27273 13.5 3.27273C14.1778 3.27273 14.7273 3.8222 14.7273 4.5C14.7273 5.1778 14.1778 5.72727 13.5 5.72727Z" fill="white"/>
</svg>
