<svg width="18" height="18" viewBox="0 0 18 18" fill="none" xmlns="http://www.w3.org/2000/svg">
<path d="M16.6725 0H1.3275C0.6003 0 0 0.5778 0 1.2897V16.7103C0 17.4222 0.6003 18 1.3275 18H16.6725C17.4078 18 18 17.4222 18 16.7103V1.2897C18 0.5778 17.3997 0 16.6725 0ZM5.4522 15.075H2.7378V6.93H5.4522V15.075ZM4.1022 5.8203H4.0797C3.1653 5.8203 2.5803 5.1975 2.5803 4.4172C2.5803 3.6225 3.1797 3.015 4.1175 3.015C5.0472 3.015 5.6178 3.6153 5.6322 4.4172C5.6322 5.1975 5.0472 5.8203 4.095 5.8203H4.1022ZM15.255 15.075H12.5325V10.7253C12.5325 9.6372 12.1428 8.8875 11.16 8.8875C10.4103 8.8875 9.9603 9.3897 9.7578 9.8775C9.6822 10.0503 9.675 10.2897 9.675 10.5372V15.075H6.9597C6.9597 15.075 6.9975 7.7103 6.9597 6.9453H9.6822V8.1C10.1835 7.2306 11.1249 6.7104 12.1275 6.75C13.9203 6.75 15.2622 7.92 15.2622 10.4175V15.075H15.255Z" fill="white"/>
</svg>
