<svg width="10" height="10" viewBox="0 0 10 10" fill="none" xmlns="http://www.w3.org/2000/svg">
<path d="M4.04304 1.1556C4.33004 0.209213 5.66996 0.209214 5.95696 1.1556L6.35635 2.47258C6.48419 2.89413 6.87281 3.18237 7.31331 3.18237H8.74481C9.69676 3.18237 10.1103 4.38672 9.35908 4.97147L8.08495 5.9633C7.75839 6.21751 7.62215 6.64659 7.74225 7.04261L8.20051 8.55373C8.48363 9.48732 7.3991 10.2323 6.62928 9.63304L5.61426 8.84291C5.25303 8.56171 4.74697 8.56171 4.38573 8.84291L3.37072 9.63304C2.6009 10.2323 1.51637 9.48732 1.79949 8.55373L2.25775 7.04261C2.37785 6.64659 2.24161 6.21751 1.91505 5.9633L0.640923 4.97147C-0.110259 4.38672 0.30324 3.18237 1.25519 3.18237H2.68669C3.12719 3.18237 3.51582 2.89413 3.64365 2.47258L4.04304 1.1556Z" fill="url(#paint0_linear)"/>
<defs>
<linearGradient id="paint0_linear" x1="-2" y1="13" x2="12.3147" y2="12.3416" gradientUnits="userSpaceOnUse">
<stop stop-color="#158BCD"/>
<stop offset="1" stop-color="#2DF2FF"/>
</linearGradient>
</defs>
</svg>
