<svg width="15" height="12" viewBox="0 0 15 12" fill="none" xmlns="http://www.w3.org/2000/svg">
<path fill-rule="evenodd" clip-rule="evenodd" d="M15 1.4228C14.4481 1.6627 13.855 1.82633 13.2325 1.8983C13.8675 1.52368 14.3556 0.93008 14.585 0.223293C13.9919 0.569613 13.3325 0.821817 12.6319 0.958991C12.07 0.37031 11.2694 0 10.3856 0C8.68625 0 7.30688 1.3576 7.30688 3.03014C7.30688 3.2682 7.33375 3.49887 7.3875 3.7197C4.82938 3.59483 2.56125 2.38856 1.045 0.554849C0.77875 1.00205 0.6275 1.52368 0.6275 2.07853C0.6275 3.12856 1.16937 4.05618 1.99687 4.59934C1.49187 4.58212 1.01812 4.44802 0.603125 4.21919C0.603125 4.23396 0.603125 4.24564 0.603125 4.25795C0.603125 5.72627 1.6625 6.95161 3.07125 7.2278C2.8125 7.29731 2.54125 7.33607 2.26063 7.33607C2.06313 7.33607 1.8675 7.317 1.68187 7.28071C2.0725 8.48452 3.21062 9.35924 4.55562 9.38569C3.50312 10.1977 2.175 10.6805 0.735 10.6805C0.485625 10.6805 0.241875 10.6664 0 10.6375C1.3625 11.4981 2.97875 12 4.71688 12C10.3781 12 13.4744 7.38405 13.4744 3.38077C13.4744 3.25097 13.4694 3.11872 13.4644 2.98893C14.065 2.56141 14.5875 2.02809 15 1.4228Z" fill="white"/>
</svg>
